<?xml version="1.0" encoding="utf-8"?><svg viewBox="0 0 294.814 100" xmlns="http://www.w3.org/2000/svg" xmlns:xlink="http://www.w3.org/1999/xlink"><style>:root>svg{display:none}:root>svg:target{display:block}</style><svg viewBox="0 0 294.814 44" id="logo-site-logo" xmlns="http://www.w3.org/2000/svg"><defs><clipPath id="aa"><path data-name="Rectangle 3" transform="translate(475 11)" d="M0 0h44v44H0z"/></clipPath></defs><g data-name="logo_site-logo_znak" transform="translate(-475 -11)" clip-path="url(#aa)"><g data-name="Group 1" transform="rotate(-45 477.554 -29.209)"><path data-name="Rectangle 2" d="M432.48 17.476l25.51-9.282 9.282 25.511-25.51 9.282z"/><path data-name="Rectangle 1" d="M432.612 17.344h27.139v27.139h-27.139z"/><circle data-name="Ellipse 1" cx="2.326" cy="2.326" r="2.326" transform="translate(451.492 28.979)"/></g></g><path data-name="Path 81" d="M66.547 35h-6.172V17.2H54.8v-5.044h17.309V17.2h-5.562zm30.966 0h-6.2v-9.312h-7.175V35h-6.2V12.156h6.2v8.469h7.172v-8.469h6.2zm7.5 0V12.156h6.2V35zm28.638-6.937a6.739 6.739 0 01-1.078 3.773 7.06 7.06 0 01-3.112 2.564 11.526 11.526 0 01-4.766.914 19.28 19.28 0 01-3.828-.32 14.212 14.212 0 01-3.219-1.117v-5.5a18.381 18.381 0 003.672 1.414 13.682 13.682 0 003.5.508 3.4 3.4 0 002.016-.477 1.465 1.465 0 00.641-1.227 1.35 1.35 0 00-.258-.82 3 3 0 00-.828-.711q-.57-.359-3.039-1.469a14.58 14.58 0 01-3.352-1.97 6.044 6.044 0 01-1.656-2.187 7.261 7.261 0 01-.539-2.922 5.856 5.856 0 012.3-4.922 10.125 10.125 0 016.313-1.766 17.714 17.714 0 017.234 1.641l-1.891 4.766a13.7 13.7 0 00-5.531-1.469 2.882 2.882 0 00-1.75.422 1.276 1.276 0 00-.547 1.047 1.512 1.512 0 00.7 1.2 26.507 26.507 0 003.767 1.94 10.437 10.437 0 014.1 2.852 6.193 6.193 0 011.149 3.836zm19.81.734a5.749 5.749 0 01-2.2 4.781 9.588 9.588 0 01-6.078 1.734 14.5 14.5 0 01-6.344-1.2v-3.534a17.242 17.242 0 003.32 1.156 14.078 14.078 0 003.273.422 5.207 5.207 0 003.273-.844 2.751 2.751 0 001.055-2.266 2.839 2.839 0 00-.969-2.172 14.584 14.584 0 00-4-2.109 10.582 10.582 0 01-4.406-2.891 6.116 6.116 0 01-1.285-3.905 5.471 5.471 0 012.031-4.5 8.426 8.426 0 015.453-1.641 16.022 16.022 0 016.531 1.438l-1.187 3.047a14.269 14.269 0 00-5.437-1.281 4.173 4.173 0 00-2.75.789 2.592 2.592 0 00-.937 2.086 2.937 2.937 0 00.375 1.523 3.83 3.83 0 001.234 1.2 20.879 20.879 0 003.094 1.484 16.928 16.928 0 013.688 1.953 5.745 5.745 0 011.719 2.047 6.157 6.157 0 01.545 2.686zm6.982 6.2V12.156h3.734V35zm20.216 0h-3.734V15.359H170.2v-3.2h17.172v3.2h-6.719zm25.7 0h-12.923V12.156h12.922v3.156h-9.188v6.219h8.609v3.125h-8.609v7.172h9.188zm13.669 0h-1.609V13.656H211v-1.5h16.453v1.5h-7.422zM233.4 35V12.156h1.594V35zm16.576 0h-1.609V13.656h-7.422v-1.5H257.4v1.5h-7.422zm13.372 0V12.156h1.594V33.5h10.891V35zm31.466 0h-12.485V12.156h12.484v1.469h-10.89v8.641H294.2v1.469h-10.277v9.8h10.891z"/></svg><svg viewBox="0 0 110 100" id="partner1" xmlns="http://www.w3.org/2000/svg"><defs><clipPath id="ba"><path data-name="Rectangle 38" d="M0 0h110v100H0z"/></clipPath></defs><g data-name="Mask Group 3"><g data-name="Group 10" opacity=".35" clip-path="url(#ba)"><path data-name="Path 35" d="M54.863 7l1.138 26.431 4.805-26.016-2.552 26.332 8.379-25.094-6.192 25.721 11.79-23.683L62.52 35.3l14.971-21.812L64.45 36.506l17.864-19.515L66.196 37.97l20.4-16.84-18.882 18.53 22.55-13.835-21.276 15.723 24.255-10.564-23.257 12.609 25.489-7.086-24.786 9.25 26.227-3.469-25.832 5.71 26.455.215-26.375 2.06 26.167 3.894-26.405-1.631 25.371 7.5-25.921-5.29 24.08 10.956-24.933-8.846 22.321 14.2-23.459-12.231 20.129 17.167-21.53-15.376 17.542 19.8-19.179-18.223 14.615 22.052-16.456-20.71 11.4 23.871-13.413-22.8 7.971 25.226-10.109-24.448 4.382 26.09-6.608-25.617.709 26.446-2.979-26.287-2.979 26.287.709-26.446-6.608 25.617 4.382-26.09-10.105 24.441 7.971-25.226-13.413 22.8 11.4-23.871L29.76 84.242 44.375 62.19 25.196 80.413l17.542-19.8-21.524 15.379L41.34 58.825l-23.459 12.23 22.321-14.2-24.933 8.846 24.08-10.956-25.921 5.29 25.371-7.5-26.405 1.631 26.167-3.894-26.375-2.06 26.455-.215-25.832-5.71 26.227 3.469-24.786-9.25 25.489 7.086-23.257-12.609 24.255 10.564-21.276-15.722L42.014 39.66 23.129 21.125l20.4 16.84-16.115-20.974 17.861 19.516-13.041-23.018 14.971 21.812-9.711-24.609 11.79 23.683-6.192-25.721 8.379 25.094-2.552-26.332 4.805 26.016z"/><g data-name="Group 8"><path data-name="Path 36" d="M40.786 79.996L2.864 62.759V36.813l37.922-17.237H68.94l37.922 17.237v25.946L68.94 79.996z"/><path data-name="Path 37" d="M68.536 21.441l36.461 16.573v23.545L68.536 78.132H41.19L4.727 61.559V38.014l36.461-16.573h27.346m.808-3.729h-28.96l-.736.334L3.185 34.619l-2.186.993v28.347l2.186.994 36.461 16.573.736.334h28.961l.735-.334 36.461-16.573 2.186-.994V35.613l-2.186-.993-36.461-16.573-.735-.334z"/></g><g data-name="Group 9"><path data-name="Path 38" d="M40.92 79.375L3.485 62.359V37.214L40.92 20.198h27.884l37.435 17.016v25.145L68.804 79.375z"/><path data-name="Path 39" d="M68.536 21.444l36.461 16.573v23.545L68.536 78.135H41.19L4.729 61.562V38.014l36.461-16.57h27.346m.539-2.486H40.651l-.49.223L3.7 35.751l-1.457.663v26.747l1.457.662 36.461 16.573.49.223H69.07l.49-.223 36.461-16.573 1.457-.662V36.413l-1.457-.663L69.56 19.177l-.49-.223z"/></g></g></g></svg><svg viewBox="0 0 90 100" id="partner2" xmlns="http://www.w3.org/2000/svg"><defs><clipPath id="ca"><path data-name="Rectangle 37" transform="translate(35)" d="M0 0h90v100H0z"/></clipPath></defs><g data-name="Mask Group 2" transform="translate(-35)" clip-path="url(#ca)"><g data-name="Group 11" opacity=".35"><g data-name="Group 11"><path data-name="Path 40" d="M80.55 91.086a40.923 40.923 0 01-34.1-18.377l-.687-1.033.687-1.033a38.2 38.2 0 000-42.185l-.687-1.033.687-1.033a40.819 40.819 0 0168.194 0l.687 1.033-.687 1.033a38.208 38.208 0 000 42.185l.687 1.033-.687 1.033A40.921 40.921 0 0180.55 91.086z"/><path data-name="Path 41" d="M80.55 8.813a40.7 40.7 0 0133.821 18.025 40.75 40.75 0 000 45.424 40.743 40.743 0 01-67.642 0 40.751 40.751 0 000-45.424A40.7 40.7 0 0180.55 8.813m0-3.8a44.507 44.507 0 00-36.973 19.7l-1.427 2.121 1.427 2.121a36.951 36.951 0 010 41.182l-1.427 2.121 1.427 2.121a44.542 44.542 0 0073.947 0l1.427-2.121-1.427-2.121a36.951 36.951 0 010-41.182l1.427-2.121-1.427-2.121a44.507 44.507 0 00-36.973-19.7z"/></g><g data-name="Group 12"><path data-name="Path 42" d="M80.55 90.086a39.712 39.712 0 01-33.127-17.935l-.452-.682.452-.682a38.61 38.61 0 000-42.472l-.452-.683.452-.682a39.561 39.561 0 0166.254 0l.452.682-.452.683a38.61 38.61 0 000 42.472l.452.682-.452.682A39.712 39.712 0 0180.55 90.086z"/><path data-name="Path 43" d="M80.55 9.504a39.646 39.646 0 0133.01 17.72 40.3 40.3 0 000 44.654 39.608 39.608 0 01-66.021 0 40.3 40.3 0 000-44.654 39.646 39.646 0 0133.01-17.72m0-2.49a42.123 42.123 0 00-35.056 18.819l-.929 1.39.929 1.39a37.8 37.8 0 010 41.874l-.929 1.39.929 1.39a42.07 42.07 0 0070.122 0l.929-1.39-.929-1.39a37.8 37.8 0 010-41.874l.929-1.39-.929-1.39A42.123 42.123 0 0080.554 7.014z"/></g></g></g></svg><svg viewBox="0 0 100 100" id="partner3" xmlns="http://www.w3.org/2000/svg"><defs><clipPath id="da"><path data-name="Rectangle 39" transform="translate(3)" d="M0 0h100v100H0z"/></clipPath></defs><g data-name="Mask Group 4" transform="translate(-3)" clip-path="url(#da)"><g data-name="Group 13" opacity=".35"><g data-name="Group 13"><path data-name="Path 44" d="M4.646 57.884v-2.23l6.331-9.163-6.331-9.163v-2.23h96.083v2.23l-6.331 9.163 6.331 9.164v2.23z"/><path data-name="Path 45" d="M100.468 35.355v1.482l-6.51 9.654 6.51 9.653v1.482H4.904v-1.482l6.51-9.653-6.51-9.654v-1.482h95.564m1.258-1.258H3.646v3.124l.215.319 6.036 8.951-6.036 8.95-.215.319v3.124h98.083v-3.129l-.215-.319-6.036-8.95 6.036-8.951.215-.319v-3.124z"/></g><g data-name="Group 14"><path data-name="Path 46" d="M32.963 72.228a26.571 26.571 0 01-3.7-3.292 26.474 26.474 0 01-7.116-18.1V18.905l30.535-6.411 30.536 6.411v31.931a26.477 26.477 0 01-7.116 18.1 26.571 26.571 0 01-3.7 3.292l-19.723 14.5z"/><path data-name="Path 47" d="M52.685 13.286l29.763 6.234v31.482a25.539 25.539 0 01-6.87 17.425 25.525 25.525 0 01-3.567 3.169L52.684 85.769 33.358 71.596a25.524 25.524 0 01-3.567-3.169 25.539 25.539 0 01-6.869-17.426V19.519l29.762-6.234m0-3.855l-.773.162-29.762 6.234-3 .628v34.547a29.218 29.218 0 007.883 20 29.414 29.414 0 004.1 3.637l19.322 14.175 2.231 1.636 2.232-1.636L74.243 74.64a29.409 29.409 0 004.1-3.637 29.218 29.218 0 007.883-20V16.456l-3-.628-29.763-6.234-.773-.162z"/></g><g data-name="Group 15"><path data-name="Path 48" d="M33.096 72.018a26.235 26.235 0 01-3.653-3.251 26.138 26.138 0 01-7.035-17.876V19.112l30.278-6.352 30.278 6.352v31.779a26.138 26.138 0 01-7.035 17.876 26.2 26.2 0 01-3.654 3.251l-19.59 14.39z"/><path data-name="Path 49" d="M52.686 13.286l29.763 6.234v31.482a25.539 25.539 0 01-6.869 17.426 25.524 25.524 0 01-3.567 3.169L52.686 85.769 33.36 71.596a25.524 25.524 0 01-3.567-3.169 25.539 25.539 0 01-6.869-17.426V19.519l29.762-6.234m0-2.57l-.516.108-29.762 6.232-2 .419v33.525a27.963 27.963 0 007.545 19.142 28.15 28.15 0 003.919 3.481l19.327 14.173 1.487 1.091 1.488-1.091L73.5 73.625a28.114 28.114 0 003.919-3.481 27.961 27.961 0 007.545-19.142V17.477l-2-.419-29.763-6.234-.516-.108z"/></g><g data-name="Group 16"><path data-name="Rectangle 36" d="M16.794 28.82h71.783v22.787H16.794z"/><path data-name="Path 50" d="M88.32 29.078V51.35H17.052V29.078H88.32m1.258-1.258H15.794v24.787h73.784V27.82z"/></g></g></g></svg><svg viewBox="0 0 148 100" id="partner4" xmlns="http://www.w3.org/2000/svg"><g data-name="Group 39" opacity=".35"><g data-name="Group 17"><path data-name="Path 51" d="M5.681 50.142l67.855-28.146 67.855 28.146-67.856 28.145z"/><path data-name="Path 52" d="M73.536 23.994l63.04 26.148-63.04 26.148-63.041-26.148 63.04-26.148m0-3.994l-1.414.586L9.082 46.734.866 50.142l8.216 3.408 63.04 26.148 1.414.586 1.413-.586 63.038-26.148 8.216-3.408-8.216-3.408-63.038-26.148L73.536 20z"/></g><g data-name="Group 18"><path data-name="Path 53" d="M7.285 50.142l66.25-27.48 66.25 27.48-66.25 27.48z"/><path data-name="Path 54" d="M73.536 23.994l63.04 26.148-63.04 26.148-63.041-26.148 63.04-26.148m0-2.663l-.943.391L9.553 47.87l-5.477 2.272 5.477 2.272 63.04 26.148.943.391.942-.391 63.04-26.148 5.477-2.272-5.477-2.271-63.042-26.149-.942-.391z"/></g><path data-name="Path 55" d="M43.117 36.614v27.059l30.419 12.618 30.419-12.618V36.614L73.536 23.993z"/><path data-name="Path 56" d="M73.535 25.99l58.225 24.151-58.225 24.152-58.226-24.151L73.535 25.99m0-2l-63.04 26.152 63.04 26.148 63.04-26.148-63.04-26.148z"/></g><path data-name="Rectangle 40" d="M0 0h148v100H0z"/></svg><svg viewBox="0 0 115 100" id="partner5" xmlns="http://www.w3.org/2000/svg"><defs><clipPath id="fa"><path data-name="Rectangle 43" transform="translate(0 9.302)" d="M0 0h115v100H0z"/></clipPath></defs><g data-name="Mask Group 7" transform="translate(0 -9.302)" clip-path="url(#fa)"><g data-name="Group 40" opacity=".35"><g data-name="Group 20"><circle data-name="Ellipse 8" cx="40.786" cy="40.786" r="40.786" transform="rotate(-45 69.626 28.84)"/><path data-name="Path 57" d="M57.682 18.738a38.942 38.942 0 11-38.943 38.945 38.942 38.942 0 0138.943-38.945m0-3.689a42.631 42.631 0 1042.63 42.634 42.679 42.679 0 00-42.63-42.634z"/></g><g data-name="Group 21" transform="translate(.87 .87)"><circle data-name="Ellipse 9" cx="40.171" cy="40.171" r="40.171" transform="rotate(-45 68.577 28.405)"/><path data-name="Path 58" d="M56.811 17.869A38.941 38.941 0 1117.87 56.81a38.942 38.942 0 0138.941-38.941m0-2.459a41.4 41.4 0 1041.4 41.4 41.448 41.448 0 00-41.4-41.4z"/></g><g data-name="Group 22"><path data-name="Path 59" d="M1.122 69.186v-2.252l6.238-9.251-6.238-9.251V46.18h113.116v2.252L108 57.683l6.238 9.251v2.252z"/><path data-name="Path 60" d="M113.623 46.793v1.449l-6.365 9.439 6.365 9.439v1.451H1.737v-1.449l6.365-9.439-6.365-9.439v-1.449h111.886m1.23-1.23H.507v3.054l.21.312 5.9 8.752-5.9 8.751-.21.312v3.055h114.346v-3.055l-.21-.312-5.9-8.751 5.9-8.752.21-.312v-3.054z"/></g><g data-name="Group 24"><path data-name="Path 61" d="M57.68 77.561A19.881 19.881 0 1177.56 57.68a19.9 19.9 0 01-19.88 19.881z"/><g data-name="Group 23"><path data-name="Path 62" d="M57.68 38.418A19.266 19.266 0 1138.417 57.68 19.266 19.266 0 0157.68 38.418m0-1.23a20.5 20.5 0 1020.5 20.5 20.518 20.518 0 00-20.5-20.5z"/></g></g></g></g></svg><svg viewBox="0 0 114 100" id="partner6" xmlns="http://www.w3.org/2000/svg"><defs><clipPath id="ga"><path data-name="Rectangle 42" d="M0 0h114v100H0z"/></clipPath></defs><g data-name="Mask Group 6"><g data-name="Group 50" opacity=".35" clip-path="url(#ga)"><g data-name="Group 41"><g data-name="Group 41"><path data-name="Path 72" d="M10.742 83.544l2.457-8.866-7.379-5.579-.583-1.712 97.853-43.932.615 1.809-2.457 8.866 7.379 5.579.584 1.712-97.853 43.932z"/></g><g data-name="Group 42"><path data-name="Path 73" d="M103.307 23.502l.39 1.155-2.535 9.239 7.615 5.814.39 1.155-98.028 44.439-.39-1.155 2.535-9.239-7.615-5.815-.39-1.155 98.027-44.439m.615-1.415l-1.042.472-98.026 44.44-.853.387.3.887.39 1.155.1.3.251.192 7.06 5.391-2.351 8.566-.084.305.1.3.39 1.155.366 1.084 1.042-.472 98.027-44.439.853-.387-.3-.887-.39-1.155-.1-.3-.251-.192-7.061-5.391 2.351-8.566.083-.305-.1-.3-.39-1.155-.366-1.084z"/></g></g><g data-name="Group 42"><g data-name="Group 44"><path data-name="Path 74" d="M25.805 68.527V16.6h62.33v51.927L56.968 83.819z"/></g><g data-name="Group 46"><g data-name="Group 45"><path data-name="Path 75" d="M88.035 16.705v51.771L56.973 83.702 25.911 68.476V16.705h62.124m3.1-3.1h-68.33v56.811l1.738.852 31.062 15.227 1.367.67 1.367-.67 31.062-15.227 1.738-.852V13.6z"/></g></g></g><g data-name="Group 43"><g data-name="Group 48"><path data-name="Path 76" d="M25.84 68.51V16.635h62.264V68.51L56.97 83.779z"/></g><g data-name="Group 49"><path data-name="Path 77" d="M88.034 16.705v51.774L56.97 83.702 25.91 68.479V16.705h62.124m2.07-2.07H23.84v55.13l1.159.568L56.061 85.56l.911.447.911-.447 31.062-15.227 1.159-.568v-55.13z"/></g></g><g data-name="Group 44"><path data-name="Path 78" d="M22.269 70.181l69.407-30.877V20.612L22.269 51.489z"/><path data-name="Path 79" d="M21.269 71.731V51.339l71.407-32.276v20.392zm1.035-19.724v18.12l69.337-31.34v-18.12z"/></g></g></g></svg><svg viewBox="0 0 44 44" id="tooltip-help" xmlns="http://www.w3.org/2000/svg"><g data-name="Ellipse 2" transform="translate(4 4)" stroke-width="3"><circle cx="18" cy="18" r="18"/><circle cx="18" cy="18" r="16.5"/></g><path data-name="Path 1" d="M19.771 24.374V23.6a2.892 2.892 0 01.362-1.5 3.8 3.8 0 011.285-1.19 4.827 4.827 0 001.055-.833 1.262 1.262 0 00.321-.851.684.684 0 00-.344-.6 1.629 1.629 0 00-.9-.222 7.048 7.048 0 00-3.2.969l-1.25-2.467a9.37 9.37 0 014.707-1.285 5.069 5.069 0 013.168.887 2.889 2.889 0 011.15 2.417 3.448 3.448 0 01-.511 1.9 5.211 5.211 0 01-1.634 1.516 6.32 6.32 0 00-1.19.9 1.014 1.014 0 00-.24.674v.462zm-.389 3.168a1.673 1.673 0 01.484-1.285 2.017 2.017 0 011.426-.453 1.948 1.948 0 011.389.457 1.676 1.676 0 01.484 1.281 1.63 1.63 0 01-.5 1.276 1.973 1.973 0 01-1.371.453 2.046 2.046 0 01-1.4-.448 1.619 1.619 0 01-.513-1.281z"/><path data-name="Rectangle 12" d="M0 0h44v44H0z"/></svg></svg>